<svg width="24" height="24" viewBox="0 0 24 24" fill="none" xmlns="http://www.w3.org/2000/svg">
<path fill-rule="evenodd" clip-rule="evenodd" d="M20.7273 0C22.5348 0 24 1.4164 24 3.16361V20.0362C24 21.7835 22.5348 23.1998 20.7273 23.1998H3.27273C1.46525 23.1998 0 21.7835 0 20.0362V3.16361C0 1.4164 1.46525 0 3.27273 0H20.7273ZM20.7273 2.10907C21.3298 2.10907 21.8182 2.58121 21.8182 3.16361V20.0362C21.8182 20.6186 21.3298 21.0907 20.7273 21.0907H15.2727V13.7089H17.5377C18.0072 13.7089 18.424 13.4184 18.5726 12.9878L19.0559 11.5863C19.2325 11.0741 18.8381 10.5453 18.2797 10.5453H15.2727V8.43621C15.2727 7.90894 15.8182 7.38167 16.3636 7.38167H18.5455C19.148 7.38167 19.6364 6.90953 19.6364 6.32713V5.60373C19.6364 5.2631 19.4113 4.95769 19.0705 4.87077C17.6405 4.50598 16.3636 4.50598 16.3636 4.50598C13.6364 4.50598 12 6.32713 12 7.90894V10.5453H9.81818C9.21569 10.5453 8.72727 11.0174 8.72727 11.5998V12.6543C8.72727 13.2368 9.21568 13.7089 9.81818 13.7089H12V21.0907H3.27273C2.67024 21.0907 2.18182 20.6186 2.18182 20.0362V3.16361C2.18182 2.58121 2.67024 2.10907 3.27273 2.10907H20.7273Z" fill="#ED7D91"/>
</svg>
