<svg width="25" height="24" viewBox="0 0 25 24" fill="none" xmlns="http://www.w3.org/2000/svg">
<path fill-rule="evenodd" clip-rule="evenodd" d="M12.0789 18.045C15.7176 18.045 18.6675 15.1935 18.6675 11.6761C18.6675 8.1586 15.7176 5.30713 12.0789 5.30713C8.44006 5.30713 5.49023 8.1586 5.49023 11.6761C5.49023 15.1935 8.44006 18.045 12.0789 18.045ZM12.0789 15.922C14.5047 15.922 16.4713 14.021 16.4713 11.6761C16.4713 9.33109 14.5047 7.43011 12.0789 7.43011C9.65299 7.43011 7.68644 9.33109 7.68644 11.6761C7.68644 14.021 9.65299 15.922 12.0789 15.922Z" fill="#ED7D91"/>
<path d="M18.6684 4.24561C18.0619 4.24561 17.5703 4.7211 17.5703 5.30765C17.5703 5.8942 18.0619 6.3697 18.6684 6.3697C19.2749 6.3697 19.7665 5.8942 19.7665 5.30765C19.7665 4.7211 19.2749 4.24561 18.6684 4.24561Z" fill="#ED7D91"/>
<path fill-rule="evenodd" clip-rule="evenodd" d="M0.718116 3.47751C0 4.8399 0 6.62337 0 10.1903V13.1625C0 16.7294 0 18.5129 0.718116 19.8752C1.34979 21.0737 2.35772 22.048 3.59745 22.6586C5.00684 23.3528 6.85183 23.3528 10.5418 23.3528H13.6165C17.3064 23.3528 19.1515 23.3528 20.5608 22.6586C21.8005 22.048 22.8085 21.0737 23.4401 19.8752C24.1583 18.5129 24.1583 16.7294 24.1583 13.1625V10.1903C24.1583 6.62337 24.1583 4.8399 23.4401 3.47751C22.8085 2.27911 21.8005 1.30478 20.5608 0.694173C19.1515 0 17.3064 0 13.6165 0H10.5418C6.85183 0 5.00684 0 3.59745 0.694173C2.35772 1.30478 1.34979 2.27911 0.718116 3.47751ZM13.6165 2.12298H10.5418C8.66057 2.12298 7.38173 2.12464 6.39325 2.2027C5.43039 2.27874 4.938 2.41658 4.59451 2.58576C3.76802 2.99284 3.09607 3.64239 2.67495 4.44132C2.49993 4.77336 2.35734 5.24933 2.27867 6.18009C2.19792 7.13561 2.19621 8.37181 2.19621 10.1903V13.1625C2.19621 14.981 2.19792 16.2171 2.27867 17.1727C2.35734 18.1035 2.49993 18.5795 2.67495 18.9115C3.09607 19.7104 3.76802 20.3599 4.59451 20.767C4.938 20.9362 5.43039 21.0741 6.39325 21.1501C7.38173 21.2281 8.66057 21.2298 10.5418 21.2298H13.6165C15.4978 21.2298 16.7765 21.2281 17.765 21.1501C18.7279 21.0741 19.2203 20.9362 19.5638 20.767C20.3902 20.3599 21.0622 19.7104 21.4833 18.9115C21.6583 18.5795 21.801 18.1035 21.8796 17.1727C21.9603 16.2171 21.9621 14.981 21.9621 13.1625V10.1903C21.9621 8.37181 21.9603 7.13561 21.8796 6.18009C21.801 5.24933 21.6583 4.77336 21.4833 4.44132C21.0622 3.64239 20.3902 2.99284 19.5638 2.58576C19.2203 2.41658 18.7279 2.27874 17.765 2.2027C16.7765 2.12464 15.4978 2.12298 13.6165 2.12298Z" fill="#ED7D91"/>
</svg>
