<svg width="81" height="50" viewBox="0 0 81 50" fill="none" xmlns="http://www.w3.org/2000/svg">
<path d="M9.32 24.84C9.96 23.8 10.88 22.96 12.08 22.32C13.28 21.68 14.6533 21.36 16.2 21.36C18.04 21.36 19.7067 21.8267 21.2 22.76C22.6933 23.6933 23.8667 25.0267 24.72 26.76C25.6 28.4933 26.04 30.5067 26.04 32.8C26.04 35.0933 25.6 37.12 24.72 38.88C23.8667 40.6133 22.6933 41.96 21.2 42.92C19.7067 43.8533 18.04 44.32 16.2 44.32C14.6267 44.32 13.2533 44.0133 12.08 43.4C10.9067 42.76 9.98667 41.92 9.32 40.88V44H2.48V14.4H9.32V24.84ZM19.08 32.8C19.08 31.0933 18.6 29.76 17.64 28.8C16.7067 27.8133 15.5467 27.32 14.16 27.32C12.8 27.32 11.64 27.8133 10.68 28.8C9.74667 29.7867 9.28 31.1333 9.28 32.84C9.28 34.5467 9.74667 35.8933 10.68 36.88C11.64 37.8667 12.8 38.36 14.16 38.36C15.52 38.36 16.68 37.8667 17.64 36.88C18.6 35.8667 19.08 34.5067 19.08 32.8ZM33.0684 19.36C31.8684 19.36 30.8818 19.0133 30.1084 18.32C29.3618 17.6 28.9884 16.72 28.9884 15.68C28.9884 14.6133 29.3618 13.7333 30.1084 13.04C30.8818 12.32 31.8684 11.96 33.0684 11.96C34.2418 11.96 35.2018 12.32 35.9484 13.04C36.7218 13.7333 37.1084 14.6133 37.1084 15.68C37.1084 16.72 36.7218 17.6 35.9484 18.32C35.2018 19.0133 34.2418 19.36 33.0684 19.36ZM36.4684 21.68V44H29.6284V21.68H36.4684ZM40.0653 32.8C40.0653 30.5067 40.492 28.4933 41.3453 26.76C42.2253 25.0267 43.412 23.6933 44.9053 22.76C46.3986 21.8267 48.0653 21.36 49.9053 21.36C51.372 21.36 52.7053 21.6667 53.9053 22.28C55.132 22.8933 56.092 23.72 56.7853 24.76V14.4H63.6253V44H56.7853V40.8C56.1453 41.8667 55.2253 42.72 54.0253 43.36C52.852 44 51.4786 44.32 49.9053 44.32C48.0653 44.32 46.3986 43.8533 44.9053 42.92C43.412 41.96 42.2253 40.6133 41.3453 38.88C40.492 37.12 40.0653 35.0933 40.0653 32.8ZM56.7853 32.84C56.7853 31.1333 56.3053 29.7867 55.3453 28.8C54.412 27.8133 53.2653 27.32 51.9053 27.32C50.5453 27.32 49.3853 27.8133 48.4253 28.8C47.492 29.76 47.0253 31.0933 47.0253 32.8C47.0253 34.5067 47.492 35.8667 48.4253 36.88C49.3853 37.8667 50.5453 38.36 51.9053 38.36C53.2653 38.36 54.412 37.8667 55.3453 36.88C56.3053 35.8933 56.7853 34.5467 56.7853 32.84Z" fill="#ED7D91"/>
<rect x="68" y="21.6968" width="6.5564" height="22.9474" transform="rotate(-15 68 21.6968)" fill="#ED7D91"/>
</svg>
