<svg width="48" height="36" viewBox="0 0 48 36" fill="none" xmlns="http://www.w3.org/2000/svg">
<path d="M5.592 14.504C5.976 13.88 6.528 13.376 7.248 12.992C7.968 12.608 8.792 12.416 9.72 12.416C10.824 12.416 11.824 12.696 12.72 13.256C13.616 13.816 14.32 14.616 14.832 15.656C15.36 16.696 15.624 17.904 15.624 19.28C15.624 20.656 15.36 21.872 14.832 22.928C14.32 23.968 13.616 24.776 12.72 25.352C11.824 25.912 10.824 26.192 9.72 26.192C8.776 26.192 7.952 26.008 7.248 25.64C6.544 25.256 5.992 24.752 5.592 24.128V26H1.488V8.24H5.592V14.504ZM11.448 19.28C11.448 18.256 11.16 17.456 10.584 16.88C10.024 16.288 9.328 15.992 8.496 15.992C7.68 15.992 6.984 16.288 6.408 16.88C5.848 17.472 5.568 18.28 5.568 19.304C5.568 20.328 5.848 21.136 6.408 21.728C6.984 22.32 7.68 22.616 8.496 22.616C9.312 22.616 10.008 22.32 10.584 21.728C11.16 21.12 11.448 20.304 11.448 19.28ZM19.8411 11.216C19.1211 11.216 18.5291 11.008 18.0651 10.592C17.6171 10.16 17.3931 9.632 17.3931 9.008C17.3931 8.368 17.6171 7.84 18.0651 7.424C18.5291 6.992 19.1211 6.776 19.8411 6.776C20.5451 6.776 21.1211 6.992 21.5691 7.424C22.0331 7.84 22.2651 8.368 22.2651 9.008C22.2651 9.632 22.0331 10.16 21.5691 10.592C21.1211 11.008 20.5451 11.216 19.8411 11.216ZM21.8811 12.608V26H17.7771V12.608H21.8811ZM24.0392 19.28C24.0392 17.904 24.2952 16.696 24.8072 15.656C25.3352 14.616 26.0472 13.816 26.9432 13.256C27.8392 12.696 28.8392 12.416 29.9432 12.416C30.8232 12.416 31.6232 12.6 32.3432 12.968C33.0792 13.336 33.6552 13.832 34.0712 14.456V8.24H38.1752V26H34.0712V24.08C33.6872 24.72 33.1352 25.232 32.4152 25.616C31.7112 26 30.8872 26.192 29.9432 26.192C28.8392 26.192 27.8392 25.912 26.9432 25.352C26.0472 24.776 25.3352 23.968 24.8072 22.928C24.2952 21.872 24.0392 20.656 24.0392 19.28ZM34.0712 19.304C34.0712 18.28 33.7832 17.472 33.2072 16.88C32.6472 16.288 31.9592 15.992 31.1432 15.992C30.3272 15.992 29.6312 16.288 29.0552 16.88C28.4952 17.456 28.2152 18.256 28.2152 19.28C28.2152 20.304 28.4952 21.12 29.0552 21.728C29.6312 22.32 30.3272 22.616 31.1432 22.616C31.9592 22.616 32.6472 22.32 33.2072 21.728C33.7832 21.136 34.0712 20.328 34.0712 19.304Z" fill="#ED7D91"/>
<rect x="40" y="13.0352" width="4" height="14" transform="rotate(-15 40 13.0352)" fill="#ED7D91"/>
</svg>
