<svg width="25" height="25" viewBox="0 0 25 25" fill="none" xmlns="http://www.w3.org/2000/svg">
<path d="M5.50561 7.43662C5.63109 6.47732 6.92081 5.17353 7.94437 5.3182L7.94273 5.31662C8.93884 5.4996 9.72737 7.15689 10.172 7.9021C10.487 8.44279 10.2825 8.99061 9.98862 9.22177C9.5922 9.53062 8.97231 9.95678 9.10237 10.3847C9.3336 11.1453 12.0789 13.7991 13.4291 14.5535C13.9401 14.839 14.3108 14.0859 14.6272 13.7C14.8572 13.4032 15.4243 13.2259 15.9824 13.5188C16.8159 13.988 17.601 14.5333 18.3271 15.1472C18.6897 15.4401 18.7748 15.8731 18.5235 16.3307C18.081 17.1367 16.801 18.1996 15.8719 17.9836C14.2491 17.6064 7.68644 15.1472 5.57845 8.02243C5.4599 7.68538 5.48974 7.55796 5.50561 7.43662Z" fill="#ED7D91"/>
<path fill-rule="evenodd" clip-rule="evenodd" d="M12.0791 23.3528C10.7355 23.3528 9.99208 23.2134 8.78483 22.8221L6.47269 23.9396C5.01243 24.6454 3.29431 23.6189 3.29431 22.0407V19.6376C0.9296 17.5061 0 15.0484 0 11.6764C0 5.22771 5.40802 0 12.0791 0C18.7502 0 24.1583 5.22771 24.1583 11.6764C24.1583 18.1251 18.7502 23.3528 12.0791 23.3528ZM5.49052 18.7144L4.79207 18.0848C2.95485 16.4289 2.19621 14.5776 2.19621 11.6764C2.19621 6.4002 6.62095 2.12298 12.0791 2.12298C17.5374 2.12298 21.9621 6.4002 21.9621 11.6764C21.9621 16.9526 17.5374 21.2298 12.0791 21.2298C10.9967 21.2298 10.4891 21.1353 9.48317 20.8093L8.61843 20.5289L5.49052 22.0407V18.7144Z" fill="#ED7D91"/>
</svg>
